HIERARCHY
ROOT hip
{
	OFFSET 0.000000 0.000000 0.000000 
	CHANNELS 6 Xposition Yposition Zposition Xrotation Zrotation Yrotation
	JOINT abdomen
	{
		OFFSET 0.000000 3.402643 0.000000 
		CHANNELS 3 Xrotation Zrotation Yrotation
		JOINT chest
		{
			OFFSET 0.000000 8.438565 -0.680529 
			CHANNELS 3 Xrotation Zrotation Yrotation
			JOINT neck
			{
				OFFSET 0.000000 10.207942 -0.272212 
				CHANNELS 3 Xrotation Zrotation Yrotation
				JOINT head
				{
					OFFSET 0.000000 3.130431 0.000000 
					CHANNELS 3 Xrotation Zrotation Yrotation
					End Site
					{
						OFFSET 0.000000 3.130435 0.000000 
					}
				}
			}
			JOINT lCollar
			{
				OFFSET 3.470700 6.669187 -0.816635 
				CHANNELS 3 Yrotation Zrotation Xrotation
				JOINT lShldr
				{
					OFFSET 3.198488 0.000000 0.000000 
					CHANNELS 3 Zrotation Yrotation Xrotation
					JOINT lForeArm
					{
						OFFSET 10.139888 0.000000 0.000000 
						CHANNELS 3 Yrotation Zrotation Xrotation
						JOINT lHand
						{
							OFFSET 8.370511 0.000000 0.000000 
							CHANNELS 3 Zrotation Yrotation Xrotation
							End Site
							{
								OFFSET 4.083176 0.000000 0.000000 
							}
						}
					}
				}
			}
			JOINT rCollar
			{
				OFFSET -3.470700 6.669187 -0.816635 
				CHANNELS 3 Yrotation Zrotation Xrotation
				JOINT rShldr
				{
					OFFSET -3.198488 0.000000 0.000000 
					CHANNELS 3 Zrotation Yrotation Xrotation
					JOINT rForeArm
					{
						OFFSET -10.139888 0.000000 0.000000 
						CHANNELS 3 Yrotation Zrotation Xrotation
						JOINT rHand
						{
							OFFSET -8.370511 0.000000 0.000000 
							CHANNELS 3 Zrotation Yrotation Xrotation
							End Site
							{
								OFFSET -4.083176 0.000000 0.000000 
							}
						}
					}
				}
			}
		}
	}
	JOINT lThigh
	{
		OFFSET 5.308129 -1.633274 1.361059 
		CHANNELS 3 Xrotation Zrotation Yrotation
		JOINT lShin
		{
			OFFSET -2.041588 -20.007561 0.000000 
			CHANNELS 3 Xrotation Zrotation Yrotation
			JOINT lFoot
			{
				OFFSET 0.000000 -19.190928 -1.224953 
				CHANNELS 3 Xrotation Yrotation Zrotation
				End Site
				{
					OFFSET 0.000000 -2.449906 4.627600 
				}
			}
		}
	}
	JOINT rThigh
	{
		OFFSET -5.308129 -1.633274 1.361059 
		CHANNELS 3 Xrotation Zrotation Yrotation
		JOINT rShin
		{
			OFFSET 2.041588 -20.007561 0.000000 
			CHANNELS 3 Xrotation Zrotation Yrotation
			JOINT rFoot
			{
				OFFSET 0.000000 -19.190928 -1.224953 
				CHANNELS 3 Xrotation Yrotation Zrotation
				End Site
				{
					OFFSET 0.000000 -2.449906 4.627600 
				}
			}
		}
	}
}
MOTION
Frames: 8
Frame Time: 0.033333
-50.553177 30.096657 0.720740 -39.228867 -6.320418 2.839500 0.000000 0.000000 0.000000 38.684525 4.759925 -2.049165 27.739021 2.701228 -26.114948 -12.878584 -8.315106 -20.815821 -9.796703 3.260724 24.998398 -71.745819 -11.436090 5.824511 -49.146500 -7.418224 -9.530654 -27.353821 -4.785001 -1.377615 -2.202090 12.757995 24.997150 43.762836 11.462648 29.893583 67.149803 8.291102 -9.480314 -21.066710 4.365858 -4.832968 -40.625763 14.820845 0.715694 93.737534 8.964253 8.566844 -14.480425 0.780640 -6.277925 -37.817638 -12.146755 -4.245749 87.634850 -3.984773 -13.584102 -6.566007 -0.334860 5.839657 
-50.533707 30.022425 0.600087 -39.840809 -6.477014 2.741355 0.000000 0.000000 0.000000 38.879311 4.767656 -1.863521 27.867065 2.715120 -26.643406 -13.534778 -8.704170 -21.372698 -9.521230 3.436166 24.993002 -71.794144 -11.869953 5.866471 -49.284924 -7.397184 -9.692038 -27.341122 -4.602061 -1.430324 -2.142104 12.913276 24.990595 43.977650 11.303002 29.042620 67.354927 8.041595 -8.853767 -20.528206 3.608934 -4.673592 -40.308327 15.184025 0.859166 93.755623 8.925280 8.257370 -14.322920 0.749105 -5.974236 -37.464569 -12.273214 -4.524491 87.583015 -3.858432 -13.155206 -6.392062 -0.274897 5.169981 
-50.521969 29.950710 0.460397 -41.031349 -6.175780 2.504139 0.000000 0.000000 0.000000 39.409378 4.386125 -1.749030 28.117210 2.505923 -27.019789 -13.806623 -9.182941 -21.600267 -9.223366 3.165359 24.995110 -71.767090 -12.370127 5.668208 -49.587341 -7.376149 -10.977820 -27.698040 -3.242360 -1.759398 -2.061538 12.875121 24.995451 43.507248 11.552476 28.859100 67.460197 8.023591 -8.902282 -19.150475 3.361298 -4.545503 -39.176037 15.389103 1.477201 93.672745 8.846980 8.092971 -14.124608 0.698085 -5.658662 -36.605579 -12.663845 -4.486084 87.559769 -3.937192 -12.432854 -6.284295 -0.251857 4.837317 
-50.529240 29.908947 0.332460 -41.423344 -6.019316 2.581839 0.000000 0.000000 0.000000 39.283566 4.244503 -1.794510 28.119368 2.547819 -27.470598 -14.141171 -9.601248 -21.755566 -9.168567 3.093895 24.994207 -71.808807 -12.797448 5.221083 -49.350594 -7.403606 -13.692080 -28.292320 -1.317902 -2.240870 -2.244240 13.091853 24.989229 42.994953 11.811413 28.560183 67.259605 8.072782 -9.698825 -18.819923 4.006786 -4.620055 -38.973331 15.351172 1.648519 93.420616 8.769113 7.875550 -13.739692 0.657013 -5.346900 -36.393589 -13.036188 -4.620740 87.497627 -3.857859 -12.040222 -6.108198 -0.241290 4.402519 
-50.557404 29.894884 0.248310 -41.973736 -6.021178 2.150428 0.000000 0.000000 0.000000 39.129005 3.940212 -1.589201 28.141588 2.374736 -27.457085 -14.119318 -9.761638 -21.946526 -8.725821 2.696662 24.998249 -71.713799 -12.932938 4.839875 -49.149323 -7.256912 -14.002499 -27.672058 -0.206080 -2.538205 -2.037348 13.345997 24.988733 43.213268 11.489826 27.027922 67.032616 7.831924 -10.666674 -15.261320 4.270581 -4.418603 -38.358475 15.722314 1.953926 93.283279 8.720271 7.843397 -13.562357 0.642488 -5.341279 -36.124619 -12.789734 -4.503555 87.385330 -3.907521 -11.970670 -5.788248 -0.222801 3.970006 
-50.527924 29.914488 0.177271 -42.430630 -5.960597 2.620697 0.000000 0.000000 0.000000 38.786018 4.183415 -1.818167 28.005051 2.465449 -27.664396 -13.812212 -9.800898 -22.037922 -8.812822 2.699244 24.993999 -72.063759 -13.682353 4.681885 -47.847252 -7.059604 -13.925429 -26.018000 2.240151 -3.207947 -2.456718 13.724253 24.997595 43.083084 11.839531 26.698143 65.509148 7.844470 -7.708471 -15.174923 4.308137 -4.410163 -38.008900 15.357540 1.751542 93.149841 8.759277 7.737794 -13.449992 0.613738 -5.223524 -35.512402 -13.171574 -4.822366 87.142754 -3.799823 -11.912258 -5.615615 -0.204597 3.965333 
-50.518200 29.851421 0.085315 -43.396111 -6.015298 3.328117 0.000000 0.000000 0.000000 38.765038 4.471558 -2.090606 27.831314 2.794199 -28.004936 -13.265433 -10.054215 -21.926653 -9.046038 2.458720 24.990505 -72.100288 -13.070948 3.736063 -49.144073 -6.391808 -11.695392 -25.557211 -1.488173 -2.362710 -3.105242 14.405781 24.993702 42.451717 12.362157 26.425941 64.499077 7.853404 -5.658996 -14.346198 3.746840 -4.302506 -37.536091 14.998973 1.372869 93.141418 8.934976 7.918032 -13.084510 0.595241 -5.086592 -34.572632 -13.482963 -5.334296 87.052856 -3.692766 -11.998182 -5.224708 -0.195898 3.858301 
-50.604378 29.860102 -0.018857 -44.473698 -5.861798 2.876275 0.000000 0.000000 0.000000 38.836353 4.014083 -1.949308 27.926611 2.460145 -27.898916 -13.297266 -9.923322 -21.977434 -8.103065 1.681782 24.997364 -71.387161 -11.776020 2.371041 -51.973816 -5.644843 -8.226939 -21.875311 -6.576095 -1.395886 -2.902531 14.314775 24.990904 42.562901 12.934962 26.397606 63.071396 7.725967 -2.104179 -13.904584 3.594463 -4.248219 -36.278828 15.351347 1.857895 92.793053 8.905754 8.035078 -12.775110 0.578280 -5.145925 -33.891140 -12.976400 -4.979639 86.944618 -3.849345 -12.367343 -4.626153 -0.125909 3.679857 
